<svg width="35" height="35" fill="none" xmlns="http://www.w3.org/2000/svg"><mask id="path-1-inside-1_402_749" fill="#fff"><path d="M21.68 8.15h2.402V4.1c-.415-.056-1.84-.18-3.5-.18-3.465 0-5.838 2.11-5.838 5.987v3.568h-3.822v4.529h3.822V29.4h4.687V18.005H23.1l.583-4.529H19.43v-3.12c.001-1.31.365-2.205 2.25-2.205z"/></mask><path d="M21.68 8.15h2.402V4.1c-.415-.056-1.84-.18-3.5-.18-3.465 0-5.838 2.11-5.838 5.987v3.568h-3.822v4.529h3.822V29.4h4.687V18.005H23.1l.583-4.529H19.43v-3.12c.001-1.31.365-2.205 2.25-2.205z" fill="#000"/><path d="M21.68 8.15h2.402V4.1c-.415-.056-1.84-.18-3.5-.18-3.465 0-5.838 2.11-5.838 5.987v3.568h-3.822v4.529h3.822V29.4h4.687V18.005H23.1l.583-4.529H19.43v-3.12c.001-1.31.365-2.205 2.25-2.205z" fill="#fff"/><path d="M24.082 8.15v21.334h21.333V8.151H24.082zm0-4.05h21.333v-18.681l-18.517-2.466-2.816 21.146zm-9.338 9.375v21.333h21.334V13.475H14.744zm-3.822 0V-7.858h-21.334v21.333h21.334zm0 4.529h-21.334v21.333h21.334V18.004zm3.822 0h21.334V-3.329H14.744v21.333zm0 11.396H-6.588v21.333h21.334V29.4zm4.687 0v21.333h21.334V29.4H19.43zm0-11.395V-3.328H-1.902v21.333h21.333zm3.668 0v21.333h18.766l2.393-18.613-21.159-2.72zm.583-4.529l21.159 2.72 3.092-24.053H23.682v21.333zm-4.252 0H-1.903v21.333H19.43V13.476zm0-3.12l-21.333-.018v.018H19.43zm2.25 19.128h2.402v-42.667h-2.403v42.667zM45.414 8.151V4.099H2.75v4.052h42.666zM26.898-17.047c-1.474-.197-3.851-.366-6.316-.366v42.666a15.3 15.3 0 011.119.044l-.069-.007a13.803 13.803 0 01-.367-.044l5.633-42.293zm-6.316-.366c-6.048 0-13.345 1.912-19.197 7.683C-4.54-3.89-6.59 3.543-6.59 9.907h42.667c0 2.485-.863 6.924-4.735 10.742-3.799 3.747-8.178 4.604-10.761 4.604v-42.666zm-27.17 27.32v3.568h42.666V9.907H-6.59zM14.744-7.858h-3.823v42.666h3.822V-7.858zm-25.157 21.333v4.529h42.667v-4.53h-42.667zm21.334 25.862h3.822V-3.329h-3.822v42.666zm-17.51-21.333V29.4h42.666V18.004H-6.59zm21.333 32.73h4.686V8.066h-4.687v42.666zM40.764 29.4V18.005H-1.902V29.4h42.667zM19.43 39.338h3.67V-3.328h-3.668v42.666zm24.827-18.613l.583-4.529-42.319-5.44-.582 4.529 42.319 5.44zM23.682-7.857H19.43v42.666h4.252V-7.857zm17.082 21.333v-3.12H-1.904v3.12h42.666zm0-3.102c0 .261.223 6.41-4.602 12.135-5.516 6.546-12.575 6.975-14.483 6.975v-42.667c-3.791 0-11.975.877-18.144 8.199-5.478 6.5-5.437 13.751-5.438 15.322l42.666.036z" fill="url(#paint0_linear_402_749)" mask="url(#path-1-inside-1_402_749)"/><defs><linearGradient id="paint0_linear_402_749" x1="16.314" y1="3.92" x2="16.314" y2="29.4" gradientUnits="userSpaceOnUse"><stop offset="0" stop-color="#2A9AAD"/><stop offset="1" stop-color="#0C8195"/></linearGradient></defs></svg>